<svg width="120" height="121" viewBox="0 0 120 121" fill="none" xmlns="http://www.w3.org/2000/svg">
<rect width="120" height="120" transform="translate(0 0.5)" fill="#120F0F"/>
<path d="M106.6 48.25L97.15 45.1L101.6 36.2C102.051 35.2684 102.202 34.2198 102.032 33.1988C101.862 32.1779 101.379 31.2349 100.65 30.5L90 19.85C89.2612 19.1104 88.3091 18.621 87.2777 18.4506C86.2463 18.2802 85.1875 18.4374 84.25 18.9L75.35 23.35L72.2 13.9C71.8673 12.9149 71.2359 12.0581 70.3935 11.4487C69.5511 10.8393 68.5397 10.5077 67.5 10.5H52.5C51.4518 10.4973 50.4292 10.8241 49.5769 11.4342C48.7245 12.0443 48.0854 12.9069 47.75 13.9L44.6 23.35L35.7 18.9C34.7684 18.4489 33.7198 18.298 32.6989 18.4682C31.6779 18.6383 30.7349 19.1211 30 19.85L19.35 30.5C18.6104 31.2388 18.121 32.1909 17.9506 33.2223C17.7802 34.2537 17.9374 35.3125 18.4 36.25L22.85 45.15L13.4 48.3C12.415 48.6327 11.5581 49.2641 10.9488 50.1065C10.3394 50.9489 10.0077 51.9603 10 53V68C9.99731 69.0482 10.3241 70.0708 10.9342 70.9231C11.5443 71.7755 12.4069 72.4146 13.4 72.75L22.85 75.9L18.4 84.8C17.9489 85.7316 17.798 86.7802 17.9682 87.8011C18.1384 88.8221 18.6212 89.7651 19.35 90.5L30 101.15C30.7388 101.89 31.6909 102.379 32.7223 102.549C33.7537 102.72 34.8126 102.563 35.75 102.1L44.65 97.65L47.8 107.1C48.1354 108.093 48.7745 108.956 49.6269 109.566C50.4792 110.176 51.5018 110.503 52.55 110.5H67.55C68.5982 110.503 69.6208 110.176 70.4732 109.566C71.3255 108.956 71.9646 108.093 72.3 107.1L75.45 97.65L84.35 102.1C85.2756 102.54 86.314 102.684 87.3246 102.514C88.3351 102.345 89.2691 101.868 90 101.15L100.65 90.5C101.39 89.7612 101.879 88.8091 102.049 87.7777C102.22 86.7463 102.063 85.6874 101.6 84.75L97.15 75.85L106.6 72.7C107.585 72.3673 108.442 71.7358 109.051 70.8935C109.661 70.0511 109.992 69.0397 110 68V53C110.003 51.9518 109.676 50.9292 109.066 50.0768C108.456 49.2245 107.593 48.5854 106.6 48.25ZM100 64.4L94 66.4C92.6203 66.8475 91.3545 67.5899 90.2903 68.5755C89.2261 69.5611 88.3891 70.7665 87.8373 72.1079C87.2855 73.4493 87.0322 74.8947 87.0948 76.3439C87.1574 77.793 87.5345 79.2112 88.2 80.5L91.05 86.2L85.55 91.7L80 88.7C78.7178 88.0612 77.3133 87.7053 75.8816 87.6565C74.4499 87.6076 73.0244 87.867 71.7016 88.417C70.3788 88.9669 69.1897 89.7947 68.2146 90.8442C67.2396 91.8937 66.5014 93.1404 66.05 94.5L64.05 100.5H56.1L54.1 94.5C53.6525 93.1203 52.9101 91.8544 51.9245 90.7903C50.9389 89.7261 49.7335 88.8891 48.3921 88.3373C47.0507 87.7855 45.6053 87.5321 44.1561 87.5948C42.707 87.6574 41.2888 88.0345 40 88.7L34.3 91.55L28.8 86.05L31.8 80.5C32.4655 79.2112 32.8426 77.793 32.9052 76.3439C32.9679 74.8947 32.7145 73.4493 32.1627 72.1079C31.6109 70.7665 30.7739 69.5611 29.7097 68.5755C28.6456 67.5899 27.3797 66.8475 26 66.4L20 64.4V56.6L26 54.6C27.3797 54.1524 28.6456 53.4101 29.7097 52.4245C30.7739 51.4388 31.6109 50.2335 32.1627 48.8921C32.7145 47.5507 32.9679 46.1052 32.9052 44.6561C32.8426 43.207 32.4655 41.7888 31.8 40.5L28.95 34.95L34.45 29.45L40 32.3C41.2888 32.9655 42.707 33.3426 44.1561 33.4052C45.6053 33.4678 47.0507 33.2145 48.3921 32.6627C49.7335 32.1109 50.9389 31.2739 51.9245 30.2097C52.9101 29.1455 53.6525 27.8797 54.1 26.5L56.1 20.5H63.9L65.9 26.5C66.3476 27.8797 67.0899 29.1455 68.0755 30.2097C69.0611 31.2739 70.2665 32.1109 71.6079 32.6627C72.9493 33.2145 74.3948 33.4678 75.8439 33.4052C77.293 33.3426 78.7112 32.9655 80 32.3L85.7 29.45L91.2 34.95L88.2 40.5C87.5612 41.7822 87.2053 43.1867 87.1565 44.6184C87.1077 46.0501 87.367 47.4756 87.917 48.7984C88.467 50.1212 89.2947 51.3103 90.3442 52.2854C91.3937 53.2604 92.6404 53.9986 94 54.45L100 56.45V64.4ZM60 40.5C56.0444 40.5 52.1776 41.673 48.8886 43.8706C45.5996 46.0682 43.0362 49.1918 41.5224 52.8463C40.0087 56.5008 39.6126 60.5222 40.3843 64.4018C41.156 68.2814 43.0608 71.8451 45.8579 74.6421C48.6549 77.4392 52.2186 79.344 56.0982 80.1157C59.9778 80.8874 63.9992 80.4913 67.6537 78.9776C71.3082 77.4638 74.4318 74.9004 76.6294 71.6114C78.827 68.3224 80 64.4556 80 60.5C80 55.1957 77.8929 50.1086 74.1422 46.3578C70.3914 42.6071 65.3043 40.5 60 40.5ZM60 70.5C58.0222 70.5 56.0888 69.9135 54.4443 68.8147C52.7998 67.7159 51.5181 66.1541 50.7612 64.3268C50.0043 62.4996 49.8063 60.4889 50.1922 58.5491C50.578 56.6093 51.5304 54.8274 52.9289 53.4289C54.3275 52.0304 56.1093 51.078 58.0491 50.6921C59.9889 50.3063 61.9996 50.5043 63.8268 51.2612C65.6541 52.0181 67.2159 53.2998 68.3147 54.9443C69.4135 56.5888 70 58.5222 70 60.5C70 63.1521 68.9464 65.6957 67.0711 67.571C65.1957 69.4464 62.6522 70.5 60 70.5Z" fill="white"/>
</svg>
