<svg width="68" height="68" viewBox="0 0 68 68" fill="none" xmlns="http://www.w3.org/2000/svg">
<path d="M34.0001 17.3333C33.116 17.3333 32.2682 17.6845 31.6431 18.3096C31.0179 18.9347 30.6667 19.7826 30.6667 20.6666V34C30.6667 34.884 31.0179 35.7319 31.6431 36.357C32.2682 36.9821 33.116 37.3333 34.0001 37.3333C34.8841 37.3333 35.732 36.9821 36.3571 36.357C36.9822 35.7319 37.3334 34.884 37.3334 34V20.6666C37.3334 19.7826 36.9822 18.9347 36.3571 18.3096C35.732 17.6845 34.8841 17.3333 34.0001 17.3333ZM34.0001 44C33.3408 44 32.6963 44.1955 32.1482 44.5617C31.6 44.928 31.1728 45.4486 30.9205 46.0577C30.6682 46.6668 30.6022 47.337 30.7308 47.9836C30.8594 48.6302 31.1769 49.2241 31.6431 49.6903C32.1092 50.1565 32.7032 50.474 33.3498 50.6026C33.9964 50.7312 34.6666 50.6652 35.2757 50.4129C35.8848 50.1606 36.4054 49.7334 36.7716 49.1852C37.1379 48.637 37.3334 47.9926 37.3334 47.3333C37.3334 46.4492 36.9822 45.6014 36.3571 44.9763C35.732 44.3512 34.8841 44 34.0001 44ZM66.3667 19.2L48.8001 1.63329C48.1613 1.02418 47.316 0.678904 46.4334 0.666626H21.5668C20.6842 0.678904 19.8389 1.02418 19.2001 1.63329L1.63341 19.2C1.0243 19.8387 0.679026 20.6841 0.666748 21.5666V46.4333C0.679026 47.3158 1.0243 48.1612 1.63341 48.8L19.2001 66.3666C19.8389 66.9757 20.6842 67.321 21.5668 67.3333H46.4334C47.316 67.321 48.1613 66.9757 48.8001 66.3666L66.3667 48.8C66.9759 48.1612 67.3211 47.3158 67.3334 46.4333V21.5666C67.3211 20.6841 66.9759 19.8387 66.3667 19.2ZM60.6668 45.0333L45.0334 60.6666H22.9667L7.33342 45.0333V22.9666L22.9667 7.33329H45.0334L60.6668 22.9666V45.0333Z" fill="#5470D7"/>
</svg>
