<svg width="48" height="48" viewBox="0 0 48 48" fill="none" xmlns="http://www.w3.org/2000/svg">
<path d="M30.7099 19.21C30.617 19.1163 30.5064 19.0419 30.3845 18.9911C30.2627 18.9403 30.132 18.9142 29.9999 18.9142C29.8679 18.9142 29.7372 18.9403 29.6154 18.9911C29.4935 19.0419 29.3829 19.1163 29.29 19.21L21.84 26.67L18.7099 23.53C18.6134 23.4367 18.4995 23.3634 18.3746 23.3142C18.2498 23.265 18.1165 23.2409 17.9823 23.2432C17.8481 23.2455 17.7157 23.2743 17.5926 23.3278C17.4695 23.3812 17.3582 23.4585 17.2649 23.555C17.1717 23.6515 17.0984 23.7654 17.0492 23.8903C17 24.0152 16.9759 24.1485 16.9782 24.2827C16.9805 24.4168 17.0092 24.5493 17.0627 24.6723C17.1162 24.7954 17.1934 24.9067 17.2899 25L21.13 28.84C21.2229 28.9337 21.3335 29.0081 21.4554 29.0589C21.5772 29.1096 21.7079 29.1358 21.84 29.1358C21.972 29.1358 22.1027 29.1096 22.2245 29.0589C22.3464 29.0081 22.457 28.9337 22.55 28.84L30.7099 20.68C30.8115 20.5863 30.8925 20.4727 30.9479 20.3462C31.0033 20.2197 31.0319 20.0831 31.0319 19.945C31.0319 19.8069 31.0033 19.6703 30.9479 19.5438C30.8925 19.4173 30.8115 19.3036 30.7099 19.21Z" fill="#5470D7"/>
<rect x="1" y="1" width="46" height="46" rx="23" stroke="white" stroke-opacity="0.1" stroke-width="2"/>
</svg>
