<svg width="32" height="32" viewBox="0 0 32 32" fill="none" xmlns="http://www.w3.org/2000/svg">
<g id="User Interface / Close">
<path id="Vector" d="M17.8801 16L26.2801 7.61334C26.5312 7.36227 26.6722 7.02174 26.6722 6.66667C26.6722 6.3116 26.5312 5.97107 26.2801 5.72C26.029 5.46893 25.6885 5.32788 25.3334 5.32788C24.9783 5.32788 24.6378 5.46893 24.3867 5.72L16.0001 14.12L7.61341 5.72C7.36234 5.46893 7.02182 5.32788 6.66675 5.32788C6.31168 5.32788 5.97115 5.46893 5.72008 5.72C5.46901 5.97107 5.32796 6.3116 5.32796 6.66667C5.32796 7.02174 5.46901 7.36227 5.72008 7.61334L14.1201 16L5.72008 24.3867C5.59511 24.5106 5.49592 24.6581 5.42823 24.8206C5.36053 24.983 5.32568 25.1573 5.32568 25.3333C5.32568 25.5094 5.36053 25.6836 5.42823 25.8461C5.49592 26.0086 5.59511 26.1561 5.72008 26.28C5.84403 26.405 5.9915 26.5042 6.15398 26.5719C6.31646 26.6396 6.49073 26.6744 6.66675 26.6744C6.84276 26.6744 7.01704 26.6396 7.17952 26.5719C7.342 26.5042 7.48946 26.405 7.61341 26.28L16.0001 17.88L24.3867 26.28C24.5107 26.405 24.6582 26.5042 24.8206 26.5719C24.9831 26.6396 25.1574 26.6744 25.3334 26.6744C25.5094 26.6744 25.6837 26.6396 25.8462 26.5719C26.0087 26.5042 26.1561 26.405 26.2801 26.28C26.4051 26.1561 26.5042 26.0086 26.5719 25.8461C26.6396 25.6836 26.6745 25.5094 26.6745 25.3333C26.6745 25.1573 26.6396 24.983 26.5719 24.8206C26.5042 24.6581 26.4051 24.5106 26.2801 24.3867L17.8801 16Z" fill="#5470D7"/>
</g>
</svg>
