<svg width="48" height="35" viewBox="0 0 48 35" fill="none" xmlns="http://www.w3.org/2000/svg">
<path d="M46.3666 1.03336C46.0567 0.720929 45.688 0.472948 45.2818 0.303719C44.8756 0.13449 44.44 0.0473633 43.9999 0.0473633C43.5599 0.0473633 43.1242 0.13449 42.718 0.303719C42.3118 0.472948 41.9431 0.720929 41.6333 1.03336L16.7999 25.9L6.36658 15.4334C6.04484 15.1226 5.66504 14.8782 5.24885 14.7142C4.83267 14.5502 4.38826 14.4697 3.94099 14.4775C3.49372 14.4852 3.05235 14.581 2.64209 14.7593C2.23183 14.9376 1.86071 15.195 1.54991 15.5167C1.23912 15.8384 0.994739 16.2182 0.830726 16.6344C0.666712 17.0506 0.586277 17.495 0.594016 17.9423C0.601754 18.3895 0.697513 18.8309 0.875825 19.2412C1.05414 19.6514 1.31151 20.0226 1.63325 20.3334L14.4332 33.1334C14.7431 33.4458 15.1118 33.6938 15.518 33.863C15.9242 34.0322 16.3599 34.1193 16.7999 34.1193C17.24 34.1193 17.6756 34.0322 18.0818 33.863C18.488 33.6938 18.8567 33.4458 19.1666 33.1334L46.3666 5.93336C46.7049 5.62122 46.975 5.24238 47.1596 4.82071C47.3443 4.39905 47.4397 3.9437 47.4397 3.48336C47.4397 3.02302 47.3443 2.56767 47.1596 2.146C46.975 1.72434 46.7049 1.3455 46.3666 1.03336Z" fill="#5470D7"/>
</svg>
