<svg width="42" height="43" viewBox="0 0 42 43" fill="none" xmlns="http://www.w3.org/2000/svg">
<path d="M28.7954 16.3805C28.7961 16.2653 28.774 16.1511 28.7305 16.0445C28.6869 15.9379 28.6228 15.841 28.5417 15.7592L24.8317 12.0492C24.7499 11.9681 24.653 11.9039 24.5463 11.8604C24.4397 11.8169 24.3256 11.7948 24.2104 11.7955C24.0953 11.7948 23.9811 11.8169 23.8745 11.8604C23.7679 11.9039 23.6709 11.9681 23.5892 12.0492L21.1129 14.5255L11.5492 24.0892C11.4681 24.171 11.4039 24.2679 11.3604 24.3745C11.3168 24.4811 11.2948 24.5953 11.2954 24.7105V28.4205C11.2954 28.6525 11.3876 28.8751 11.5517 29.0392C11.7158 29.2033 11.9384 29.2955 12.1704 29.2955H15.8804C16.0029 29.3021 16.1253 29.283 16.2399 29.2393C16.3545 29.1955 16.4585 29.1282 16.5454 29.0417L26.0567 19.478L28.5417 17.0455C28.6215 16.9607 28.6866 16.863 28.7342 16.7567C28.7426 16.687 28.7426 16.6165 28.7342 16.5467C28.7383 16.506 28.7383 16.4649 28.7342 16.4242L28.7954 16.3805ZM15.5217 27.5455H13.0454V25.0692L21.7342 16.3805L24.2104 18.8567L15.5217 27.5455ZM25.4442 17.623L22.9679 15.1467L24.2104 13.913L26.6779 16.3805L25.4442 17.623Z" fill="#5470D7"/>
</svg>
