<svg width="943" height="916" viewBox="0 0 943 916" fill="none" xmlns="http://www.w3.org/2000/svg">
<path d="M939.373 630.991C907.354 770.409 671.924 829.259 413.525 762.438C155.126 695.616 -28.3917 528.426 3.62727 389.009C35.6462 249.591 271.076 190.741 529.475 257.562C787.874 324.384 971.392 491.574 939.373 630.991Z" fill="white" fill-opacity="0.1"/>
<path d="M850.588 482.671C840.772 608.563 658.167 692.634 442.727 670.449C227.288 648.263 60.5966 528.222 70.4122 402.329C80.2277 276.437 262.833 192.365 478.273 214.551C693.712 236.737 860.403 356.778 850.588 482.671Z" fill="white" fill-opacity="0.1"/>
<path d="M736.699 550.894C729.535 668.086 596.264 746.347 439.029 725.694C281.794 705.042 160.137 593.297 167.301 476.106C174.465 358.914 307.736 280.653 464.971 301.306C622.206 321.958 743.863 433.703 736.699 550.894Z" fill="white" fill-opacity="0.1"/>
<path d="M724.806 200.728C710.539 223.293 675.331 224.246 646.167 202.857C617.002 181.468 604.926 145.836 619.194 123.272C633.461 100.707 668.67 99.754 697.834 121.143C726.998 142.532 739.074 178.164 724.806 200.728Z" fill="white" fill-opacity="0.1"/>
<path d="M706.418 13.3049C719.8 28.0653 717.253 49.0726 700.73 60.226C684.206 71.3795 659.964 68.4555 646.582 53.6951C633.2 38.9347 635.747 17.9274 652.27 6.77395C668.794 -4.3795 693.036 -1.4555 706.418 13.3049Z" fill="white" fill-opacity="0.1"/>
<path d="M370.625 832.652C391.48 855.564 387.511 888.172 361.76 905.485C336.01 922.798 298.229 918.259 277.375 895.348C256.52 872.436 260.489 839.828 286.24 822.515C311.99 805.202 349.771 809.741 370.625 832.652Z" fill="white" fill-opacity="0.1"/>
<path d="M504.427 137.738C513.117 147.431 511.463 161.227 500.733 168.551C490.004 175.876 474.262 173.956 465.573 164.262C456.883 154.569 458.537 140.773 469.267 133.449C479.996 126.124 495.738 128.044 504.427 137.738Z" fill="#5470D7"/>
</svg>
